<mxfile host="app.diagrams.net" modified="2024-05-31T07:15:13.320Z" agent="Mozilla/5.0 (Windows NT 10.0; Win64; x64) AppleWebKit/537.36 (KHTML, like Gecko) Chrome/125.0.0.0 Safari/537.36 Edg/125.0.0.0" etag="r8nJr3jnhZ0keBJhSqpW" version="24.4.10" type="github" pages="3">
  <diagram name="Page-1" id="2YBvvXClWsGukQMizWep">
    <mxGraphModel grid="0" page="1" gridSize="10" guides="1" tooltips="1" connect="1" arrows="1" fold="1" pageScale="1" pageWidth="850" pageHeight="1100" math="0" shadow="0">
      <root>
        <mxCell id="0" />
        <mxCell id="1" parent="0" />
        <mxCell id="hXjybL0jUk6PWmnpM2qI-1" value="Thiết bị&amp;nbsp;&lt;div&gt;ngoại vi&lt;/div&gt;" style="shape=umlActor;verticalLabelPosition=bottom;verticalAlign=top;html=1;outlineConnect=0;" parent="1" vertex="1">
          <mxGeometry x="40" y="294" width="30" height="60" as="geometry" />
        </mxCell>
        <mxCell id="hXjybL0jUk6PWmnpM2qI-4" value="người dùng" style="shape=umlActor;verticalLabelPosition=bottom;verticalAlign=top;html=1;outlineConnect=0;" parent="1" vertex="1">
          <mxGeometry x="40" y="428" width="30" height="60" as="geometry" />
        </mxCell>
        <mxCell id="hXjybL0jUk6PWmnpM2qI-5" value="" style="rounded=0;whiteSpace=wrap;html=1;align=center;" parent="1" vertex="1">
          <mxGeometry x="190" y="246" width="590" height="495" as="geometry" />
        </mxCell>
        <mxCell id="hXjybL0jUk6PWmnpM2qI-6" value="phát hiện thêm vật thể&amp;nbsp;" style="ellipse;whiteSpace=wrap;html=1;" parent="1" vertex="1">
          <mxGeometry x="225" y="281" width="120" height="80" as="geometry" />
        </mxCell>
        <mxCell id="pYMw6zasPmkHcfH62pKC-2" value="lập trình công việc cho cobot" style="ellipse;whiteSpace=wrap;html=1;" parent="1" vertex="1">
          <mxGeometry x="225" y="443" width="120" height="80" as="geometry" />
        </mxCell>
        <mxCell id="pYMw6zasPmkHcfH62pKC-6" value="cobot vật lý" style="shape=umlActor;verticalLabelPosition=bottom;verticalAlign=top;html=1;outlineConnect=0;" parent="1" vertex="1">
          <mxGeometry x="805" y="453" width="30" height="60" as="geometry" />
        </mxCell>
        <mxCell id="pYMw6zasPmkHcfH62pKC-7" value="cobot framework&amp;nbsp;&lt;span style=&quot;color: rgba(0, 0, 0, 0); font-family: monospace; font-size: 0px; text-align: start; text-wrap: nowrap;&quot;&gt;%3CmxGraphModel%3E%3Croot%3E%3CmxCell%20id%3D%220%22%2F%3E%3CmxCell%20id%3D%221%22%20parent%3D%220%22%2F%3E%3CmxCell%20id%3D%222%22%20value%3D%22%22%20style%3D%22rounded%3D0%3BwhiteSpace%3Dwrap%3Bhtml%3D1%3B%22%20vertex%3D%221%22%20parent%3D%221%22%3E%3CmxGeometry%20x%3D%22320%22%20y%3D%22240%22%20width%3D%22460%22%20height%3D%22490%22%20as%3D%22geometry%22%2F%3E%3C%2FmxCell%3E%3C%2Froot%3E%3C%2FmxGraphModel%3E&lt;/span&gt;&lt;span style=&quot;color: rgba(0, 0, 0, 0); font-family: monospace; font-size: 0px; text-align: start; text-wrap: nowrap;&quot;&gt;%3CmxGraphModel%3E%3Croot%3E%3CmxCell%20id%3D%220%22%2F%3E%3CmxCell%20id%3D%221%22%20parent%3D%220%22%2F%3E%3CmxCell%20id%3D%222%22%20value%3D%22%22%20style%3D%22rounded%3D0%3BwhiteSpace%3Dwrap%3Bhtml%3D1%3B%22%20vertex%3D%221%22%20parent%3D%221%22%3E%3CmxGeometry%20x%3D%22320%22%20y%3D%22240%22%20width%3D%22460%22%20height%3D%22490%22%20as%3D%22geometry%22%2F%3E%3C%2FmxCell%3E%3C%2Froot%3E%3C%2FmxGraphModel%3E&lt;/span&gt;&lt;span style=&quot;color: rgba(0, 0, 0, 0); font-family: monospace; font-size: 0px; text-align: start; text-wrap: nowrap;&quot;&gt;%3CmxGraphModel%3E%3Croot%3E%3CmxCell%20id%3D%220%22%2F%3E%3CmxCell%20id%3D%221%22%20parent%3D%220%22%2F%3E%3CmxCell%20id%3D%222%22%20value%3D%22%22%20style%3D%22rounded%3D0%3BwhiteSpace%3Dwrap%3Bhtml%3D1%3B%22%20vertex%3D%221%22%20parent%3D%221%22%3E%3CmxGeometry%20x%3D%22320%22%20y%3D%22240%22%20width%3D%22460%22%20height%3D%22490%22%20as%3D%22geometry%22%2F%3E%3C%2FmxCell%3E%3C%2Froot%3E%3C%2FmxGraphModel%3EF&amp;nbsp;&lt;/span&gt;&lt;span style=&quot;color: rgba(0, 0, 0, 0); font-family: monospace; font-size: 0px; text-align: start; text-wrap: nowrap;&quot;&gt;%3CmxGraphModel%3E%3Croot%3E%3CmxCell%20id%3D%220%22%2F%3E%3CmxCell%20id%3D%221%22%20parent%3D%220%22%2F%3E%3CmxCell%20id%3D%222%22%20value%3D%22%22%20style%3D%22rounded%3D0%3BwhiteSpace%3Dwrap%3Bhtml%3D1%3B%22%20vertex%3D%221%22%20parent%3D%221%22%3E%3CmxGeometry%20x%3D%22320%22%20y%3D%22240%22%20width%3D%22460%22%20height%3D%22490%22%20as%3D%22geometry%22%2F%3E%3C%2FmxCell%3E%3C%2Froot%3E%3C%2FmxGraphModel%3E&lt;/span&gt;&lt;span style=&quot;color: rgba(0, 0, 0, 0); font-family: monospace; font-size: 0px; text-align: start; text-wrap: nowrap;&quot;&gt;%3CmxGraphModel%3E%3Croot%3E%3CmxCell%20id%3D%220%22%2F%3E%3CmxCell%20id%3D%221%22%20parent%3D%220%22%2F%3E%3CmxCell%20id%3D%222%22%20value%3D%22%22%20style%3D%22rounded%3D0%3BwhiteSpace%3Dwrap%3Bhtml%3D1%3B%22%20vertex%3D%221%22%20parent%3D%221%22%3E%3CmxGeometry%20x%3D%22320%22%20y%3D%22240%22%20width%3D%22460%22%20height%3D%22490%22%20as%3D%22geometry%22%2F%3E%3C%2FmxCell%3E%3C%2Froot%3E%3C%2FmxGraphModel%3E&lt;/span&gt;&lt;span style=&quot;color: rgba(0, 0, 0, 0); font-family: monospace; font-size: 0px; text-align: start; text-wrap: nowrap;&quot;&gt;%3CmxGraphModel%3E%3Croot%3E%3CmxCell%20id%3D%220%22%2F%3E%3CmxCell%20id%3D%221%22%20parent%3D%220%22%2F%3E%3CmxCell%20id%3D%222%22%20value%3D%22%22%20style%3D%22rounded%3D0%3BwhiteSpace%3Dwrap%3Bhtml%3D1%3B%22%20vertex%3D%221%22%20parent%3D%221%22%3E%3CmxGeometry%20x%3D%22320%22%20y%3D%22240%22%20width%3D%22460%22%20height%3D%22490%22%20as%3D%22geometry%22%2F%3E%3C%2FmxCell%3E%3C%2Froot%3E%3C%2FmxGraphModel%3E&lt;/span&gt;&lt;span style=&quot;color: rgba(0, 0, 0, 0); font-family: monospace; font-size: 0px; text-align: start; text-wrap: nowrap;&quot;&gt;%3CmxGraphModel%3E%3Croot%3E%3CmxCell%20id%3D%220%22%2F%3E%3CmxCell%20id%3D%221%22%20parent%3D%220%22%2F%3E%3CmxCell%20id%3D%222%22%20value%3D%22%22%20style%3D%22rounded%3D0%3BwhiteSpace%3Dwrap%3Bhtml%3D1%3B%22%20vertex%3D%221%22%20parent%3D%221%22%3E%3CmxGeometry%20x%3D%22320%22%20y%3D%22240%22%20width%3D%22460%22%20height%3D%22490%22%20as%3D%22geometry%22%2F%3E%3C%2FmxCell%3E%3C%2Froot%3E%3C%2FmxGraphModel%3E&lt;/span&gt;&lt;span style=&quot;color: rgba(0, 0, 0, 0); font-family: monospace; font-size: 0px; text-align: start; text-wrap: nowrap;&quot;&gt;%3CmxGraphModel%3E%3Croot%3E%3CmxCell%20id%3D%220%22%2F%3E%3CmxCell%20id%3D%221%22%20parent%3D%220%22%2F%3E%3CmxCell%20id%3D%222%22%20value%3D%22%22%20style%3D%22rounded%3D0%3BwhiteSpace%3Dwrap%3Bhtml%3D1%3B%22%20vertex%3D%221%22%20parent%3D%221%22%3E%3CmxGeometry%20x%3D%22320%22%20y%3D%22240%22%20width%3D%22460%22%20height%3D%22490%22%20as%3D%22geometry%22%2F%3E%3C%2FmxCell%3E%3C%2Froot%3E%3C%2FmxGraphModel%3E&lt;/span&gt;&lt;span style=&quot;color: rgba(0, 0, 0, 0); font-family: monospace; font-size: 0px; text-align: start; text-wrap: nowrap;&quot;&gt;%3CmxGraphModel%3E%3Croot%3E%3CmxCell%20id%3D%220%22%2F%3E%3CmxCell%20id%3D%221%22%20parent%3D%220%22%2F%3E%3CmxCell%20id%3D%222%22%20value%3D%22%22%20style%3D%22rounded%3D0%3BwhiteSpace%3Dwrap%3Bhtml%3D1%3B%22%20vertex%3D%221%22%20parent%3D%221%22%3E%3CmxGeometry%20x%3D%22320%22%20y%3D%22240%22%20width%3D%22460%22%20height%3D%22490%22%20as%3D%22geometry%22%2F%3E%3C%2FmxCell%3E%3C%2Froot%3E%3C%2FmxGraphModel%3E&lt;/span&gt;&lt;span style=&quot;color: rgba(0, 0, 0, 0); font-family: monospace; font-size: 0px; text-align: start; text-wrap: nowrap;&quot;&gt;%3CmxGraphModel%3E%3Croot%3E%3CmxCell%20id%3D%220%22%2F%3E%3CmxCell%20id%3D%221%22%20parent%3D%220%22%2F%3E%3CmxCell%20id%3D%222%22%20value%3D%22%22%20style%3D%22rounded%3D0%3BwhiteSpace%3Dwrap%3Bhtml%3D1%3B%22%20vertex%3D%221%22%20parent%3D%221%22%3E%3CmxGeometry%20x%3D%22320%22%20y%3D%22240%22%20width%3D%22460%22%20height%3D%22490%22%20as%3D%22geometry%22%2F%3E%3C%2FmxCell%3E%3C%2Froot%3E%3C%2FmxGraphModel%3E&lt;/span&gt;&lt;span style=&quot;color: rgba(0, 0, 0, 0); font-family: monospace; font-size: 0px; text-align: start; text-wrap: nowrap;&quot;&gt;%3CmxGraphModel%3E%3Croot%3E%3CmxCell%20id%3D%220%22%2F%3E%3CmxCell%20id%3D%221%22%20parent%3D%220%22%2F%3E%3CmxCell%20id%3D%222%22%20value%3D%22%22%20style%3D%22rounded%3D0%3BwhiteSpace%3Dwrap%3Bhtml%3D1%3B%22%20vertex%3D%221%22%20parent%3D%221%22%3E%3CmxGeometry%20x%3D%22320%22%20y%3D%22240%22%20width%3D%22460%22%20height%3D%22490%22%20as%3D%22geometry%22%2F%3E%3C%2FmxCell%3E%3C%2Froot%3E%3C%2FmxGraphModel%3E&amp;nbsp; &amp;nbsp;&lt;/span&gt;" style="ellipse;whiteSpace=wrap;html=1;" parent="1" vertex="1">
          <mxGeometry x="444" y="443" width="120" height="80" as="geometry" />
        </mxCell>
        <mxCell id="pYMw6zasPmkHcfH62pKC-8" value="" style="endArrow=none;html=1;rounded=0;exitX=0.5;exitY=0.5;exitDx=0;exitDy=0;exitPerimeter=0;" parent="1" source="hXjybL0jUk6PWmnpM2qI-1" target="hXjybL0jUk6PWmnpM2qI-6" edge="1">
          <mxGeometry width="50" height="50" relative="1" as="geometry">
            <mxPoint x="470" y="611" as="sourcePoint" />
            <mxPoint x="520" y="561" as="targetPoint" />
          </mxGeometry>
        </mxCell>
        <mxCell id="pYMw6zasPmkHcfH62pKC-11" value="" style="endArrow=none;html=1;rounded=0;exitX=0.5;exitY=0.5;exitDx=0;exitDy=0;exitPerimeter=0;entryX=0;entryY=0.5;entryDx=0;entryDy=0;" parent="1" source="hXjybL0jUk6PWmnpM2qI-4" target="pYMw6zasPmkHcfH62pKC-2" edge="1">
          <mxGeometry width="50" height="50" relative="1" as="geometry">
            <mxPoint x="420" y="471" as="sourcePoint" />
            <mxPoint x="470" y="421" as="targetPoint" />
          </mxGeometry>
        </mxCell>
        <mxCell id="pYMw6zasPmkHcfH62pKC-15" value="&amp;lt;&amp;lt;Subsystem&amp;gt;&amp;gt; Human-Cobot Interaction" style="text;html=1;align=center;verticalAlign=middle;whiteSpace=wrap;rounded=0;" parent="1" vertex="1">
          <mxGeometry x="192" y="248" width="230" height="30" as="geometry" />
        </mxCell>
        <mxCell id="pYMw6zasPmkHcfH62pKC-39" value="" style="dashed=1;endArrow=classic;html=1;rounded=0;exitX=0.5;exitY=1;exitDx=0;exitDy=0;entryX=0.5;entryY=0;entryDx=0;entryDy=0;" parent="1" source="hXjybL0jUk6PWmnpM2qI-6" target="pYMw6zasPmkHcfH62pKC-2" edge="1">
          <mxGeometry width="50" height="50" relative="1" as="geometry">
            <mxPoint x="285" y="471" as="sourcePoint" />
            <mxPoint x="470" y="481" as="targetPoint" />
            <Array as="points" />
          </mxGeometry>
        </mxCell>
        <mxCell id="pYMw6zasPmkHcfH62pKC-43" value="&amp;lt;&amp;lt;include&amp;gt;&amp;gt;" style="edgeLabel;html=1;align=center;verticalAlign=middle;resizable=0;points=[];" parent="pYMw6zasPmkHcfH62pKC-39" vertex="1" connectable="0">
          <mxGeometry x="-0.094" y="-1" relative="1" as="geometry">
            <mxPoint x="33" as="offset" />
          </mxGeometry>
        </mxCell>
        <mxCell id="pYMw6zasPmkHcfH62pKC-41" value="" style="dashed=1;endArrow=classic;html=1;rounded=0;exitX=1;exitY=0.5;exitDx=0;exitDy=0;entryX=0;entryY=0.5;entryDx=0;entryDy=0;" parent="1" source="pYMw6zasPmkHcfH62pKC-2" target="pYMw6zasPmkHcfH62pKC-7" edge="1">
          <mxGeometry width="50" height="50" relative="1" as="geometry">
            <mxPoint x="420" y="531" as="sourcePoint" />
            <mxPoint x="470" y="481" as="targetPoint" />
            <Array as="points" />
          </mxGeometry>
        </mxCell>
        <mxCell id="SsCzKqxfncgWqDmi_MaL-1" value="&amp;lt;&amp;lt;include&amp;gt;&amp;gt;" style="edgeLabel;html=1;align=center;verticalAlign=middle;resizable=0;points=[];" vertex="1" connectable="0" parent="pYMw6zasPmkHcfH62pKC-41">
          <mxGeometry x="-0.2165" y="4" relative="1" as="geometry">
            <mxPoint y="-7" as="offset" />
          </mxGeometry>
        </mxCell>
        <mxCell id="pYMw6zasPmkHcfH62pKC-46" style="edgeStyle=orthogonalEdgeStyle;rounded=0;orthogonalLoop=1;jettySize=auto;html=1;exitX=0.5;exitY=1;exitDx=0;exitDy=0;" parent="1" edge="1">
          <mxGeometry relative="1" as="geometry">
            <mxPoint x="470" y="916" as="sourcePoint" />
            <mxPoint x="470" y="916" as="targetPoint" />
          </mxGeometry>
        </mxCell>
        <mxCell id="pYMw6zasPmkHcfH62pKC-47" style="edgeStyle=orthogonalEdgeStyle;rounded=0;orthogonalLoop=1;jettySize=auto;html=1;exitX=0.5;exitY=1;exitDx=0;exitDy=0;" parent="1" edge="1">
          <mxGeometry relative="1" as="geometry">
            <mxPoint x="470" y="916" as="sourcePoint" />
            <mxPoint x="470" y="916" as="targetPoint" />
          </mxGeometry>
        </mxCell>
        <mxCell id="5FqOGgJvYMV0OAw05BCV-2" value="bộ điều khiển" style="ellipse;whiteSpace=wrap;html=1;" parent="1" vertex="1">
          <mxGeometry x="653" y="443" width="120" height="80" as="geometry" />
        </mxCell>
        <mxCell id="5FqOGgJvYMV0OAw05BCV-4" value="" style="endArrow=none;html=1;rounded=0;exitX=0.5;exitY=0.5;exitDx=0;exitDy=0;exitPerimeter=0;entryX=1;entryY=0.5;entryDx=0;entryDy=0;" parent="1" source="pYMw6zasPmkHcfH62pKC-6" target="5FqOGgJvYMV0OAw05BCV-2" edge="1">
          <mxGeometry width="50" height="50" relative="1" as="geometry">
            <mxPoint x="430" y="401" as="sourcePoint" />
            <mxPoint x="480" y="351" as="targetPoint" />
          </mxGeometry>
        </mxCell>
        <mxCell id="5FqOGgJvYMV0OAw05BCV-5" value="" style="dashed=1;endArrow=classic;html=1;rounded=0;exitX=1;exitY=0.5;exitDx=0;exitDy=0;entryX=0;entryY=0.5;entryDx=0;entryDy=0;" parent="1" source="pYMw6zasPmkHcfH62pKC-7" target="5FqOGgJvYMV0OAw05BCV-2" edge="1">
          <mxGeometry width="50" height="50" relative="1" as="geometry">
            <mxPoint x="430" y="401" as="sourcePoint" />
            <mxPoint x="480" y="351" as="targetPoint" />
          </mxGeometry>
        </mxCell>
        <mxCell id="5FqOGgJvYMV0OAw05BCV-6" value="&amp;lt;&amp;lt;include&amp;gt;&amp;gt;" style="edgeLabel;html=1;align=center;verticalAlign=middle;resizable=0;points=[];" parent="5FqOGgJvYMV0OAw05BCV-5" vertex="1" connectable="0">
          <mxGeometry x="-0.072" y="-2" relative="1" as="geometry">
            <mxPoint y="-12" as="offset" />
          </mxGeometry>
        </mxCell>
        <mxCell id="n1BheEftToOB0nZfFm_b-1" value="đăng nhập" style="ellipse;whiteSpace=wrap;html=1;" vertex="1" parent="1">
          <mxGeometry x="223" y="556" width="120" height="80" as="geometry" />
        </mxCell>
        <mxCell id="n1BheEftToOB0nZfFm_b-3" value="" style="endArrow=none;html=1;rounded=0;exitX=0.5;exitY=0.5;exitDx=0;exitDy=0;exitPerimeter=0;entryX=0;entryY=0.5;entryDx=0;entryDy=0;" edge="1" parent="1" source="hXjybL0jUk6PWmnpM2qI-4" target="n1BheEftToOB0nZfFm_b-1">
          <mxGeometry width="50" height="50" relative="1" as="geometry">
            <mxPoint x="692" y="585" as="sourcePoint" />
            <mxPoint x="742" y="535" as="targetPoint" />
          </mxGeometry>
        </mxCell>
        <mxCell id="n1BheEftToOB0nZfFm_b-5" value="quản trị viên" style="shape=umlActor;verticalLabelPosition=bottom;verticalAlign=top;html=1;outlineConnect=0;" vertex="1" parent="1">
          <mxGeometry x="36" y="611" width="30" height="60" as="geometry" />
        </mxCell>
        <mxCell id="n1BheEftToOB0nZfFm_b-9" value="" style="endArrow=none;html=1;rounded=0;exitX=0.5;exitY=0.5;exitDx=0;exitDy=0;exitPerimeter=0;entryX=0;entryY=0.5;entryDx=0;entryDy=0;" edge="1" parent="1" source="n1BheEftToOB0nZfFm_b-5" target="pYMw6zasPmkHcfH62pKC-2">
          <mxGeometry width="50" height="50" relative="1" as="geometry">
            <mxPoint x="438" y="662" as="sourcePoint" />
            <mxPoint x="488" y="612" as="targetPoint" />
          </mxGeometry>
        </mxCell>
        <mxCell id="n1BheEftToOB0nZfFm_b-10" value="" style="endArrow=none;html=1;rounded=0;exitX=0.5;exitY=0.5;exitDx=0;exitDy=0;exitPerimeter=0;entryX=0;entryY=0.5;entryDx=0;entryDy=0;" edge="1" parent="1" source="n1BheEftToOB0nZfFm_b-5" target="n1BheEftToOB0nZfFm_b-1">
          <mxGeometry width="50" height="50" relative="1" as="geometry">
            <mxPoint x="438" y="662" as="sourcePoint" />
            <mxPoint x="488" y="612" as="targetPoint" />
          </mxGeometry>
        </mxCell>
        <mxCell id="n1BheEftToOB0nZfFm_b-11" value="cấp quyền cho người dùng" style="ellipse;whiteSpace=wrap;html=1;" vertex="1" parent="1">
          <mxGeometry x="227" y="654" width="120" height="80" as="geometry" />
        </mxCell>
        <mxCell id="n1BheEftToOB0nZfFm_b-12" value="" style="endArrow=none;html=1;rounded=0;exitX=0.5;exitY=0.5;exitDx=0;exitDy=0;exitPerimeter=0;entryX=0;entryY=0.5;entryDx=0;entryDy=0;" edge="1" parent="1" source="n1BheEftToOB0nZfFm_b-5" target="n1BheEftToOB0nZfFm_b-11">
          <mxGeometry width="50" height="50" relative="1" as="geometry">
            <mxPoint x="113" y="817" as="sourcePoint" />
            <mxPoint x="163" y="767" as="targetPoint" />
          </mxGeometry>
        </mxCell>
      </root>
    </mxGraphModel>
  </diagram>
  <diagram id="SyeN9x70TTMNf2j8QBxe" name="Trang-2">
    <mxGraphModel grid="0" page="1" gridSize="10" guides="1" tooltips="1" connect="1" arrows="1" fold="1" pageScale="1" pageWidth="827" pageHeight="1169" math="0" shadow="0">
      <root>
        <mxCell id="0" />
        <mxCell id="1" parent="0" />
        <mxCell id="Lsvn1gXwGa5AXuedf-6m-18" style="edgeStyle=orthogonalEdgeStyle;rounded=0;orthogonalLoop=1;jettySize=auto;html=1;exitX=0.5;exitY=0.5;exitDx=0;exitDy=0;exitPerimeter=0;entryX=0;entryY=0.5;entryDx=0;entryDy=0;fontFamily=Helvetica;fontSize=12;fontColor=default;" parent="1" source="Lsvn1gXwGa5AXuedf-6m-1" target="Lsvn1gXwGa5AXuedf-6m-15" edge="1">
          <mxGeometry relative="1" as="geometry" />
        </mxCell>
        <mxCell id="Lsvn1gXwGa5AXuedf-6m-1" value="I/O device 1" style="shape=umlActor;verticalLabelPosition=bottom;verticalAlign=top;html=1;outlineConnect=0;" parent="1" vertex="1">
          <mxGeometry x="200" y="60" width="30" height="60" as="geometry" />
        </mxCell>
        <mxCell id="Lsvn1gXwGa5AXuedf-6m-20" style="edgeStyle=orthogonalEdgeStyle;rounded=0;orthogonalLoop=1;jettySize=auto;html=1;exitX=0.5;exitY=0.5;exitDx=0;exitDy=0;exitPerimeter=0;entryX=1;entryY=0.5;entryDx=0;entryDy=0;fontFamily=Helvetica;fontSize=12;fontColor=default;" parent="1" source="Lsvn1gXwGa5AXuedf-6m-2" target="Lsvn1gXwGa5AXuedf-6m-15" edge="1">
          <mxGeometry relative="1" as="geometry" />
        </mxCell>
        <mxCell id="Lsvn1gXwGa5AXuedf-6m-2" value="I/O device 3" style="shape=umlActor;verticalLabelPosition=bottom;verticalAlign=top;html=1;outlineConnect=0;" parent="1" vertex="1">
          <mxGeometry x="600" y="60" width="30" height="60" as="geometry" />
        </mxCell>
        <mxCell id="Lsvn1gXwGa5AXuedf-6m-19" style="edgeStyle=orthogonalEdgeStyle;rounded=0;orthogonalLoop=1;jettySize=auto;html=1;exitX=0.5;exitY=0.5;exitDx=0;exitDy=0;exitPerimeter=0;entryX=0.5;entryY=0;entryDx=0;entryDy=0;fontFamily=Helvetica;fontSize=12;fontColor=default;" parent="1" source="Lsvn1gXwGa5AXuedf-6m-3" target="Lsvn1gXwGa5AXuedf-6m-15" edge="1">
          <mxGeometry relative="1" as="geometry" />
        </mxCell>
        <mxCell id="Lsvn1gXwGa5AXuedf-6m-3" value="I/O device 2" style="shape=umlActor;verticalLabelPosition=bottom;verticalAlign=top;html=1;outlineConnect=0;" parent="1" vertex="1">
          <mxGeometry x="398.5" y="60" width="30" height="60" as="geometry" />
        </mxCell>
        <mxCell id="Lsvn1gXwGa5AXuedf-6m-25" style="edgeStyle=orthogonalEdgeStyle;rounded=0;orthogonalLoop=1;jettySize=auto;html=1;exitX=0.5;exitY=1;exitDx=0;exitDy=0;entryX=0.5;entryY=0;entryDx=0;entryDy=0;fontFamily=Helvetica;fontSize=12;fontColor=default;" parent="1" source="Lsvn1gXwGa5AXuedf-6m-5" target="Lsvn1gXwGa5AXuedf-6m-17" edge="1">
          <mxGeometry relative="1" as="geometry" />
        </mxCell>
        <mxCell id="Lsvn1gXwGa5AXuedf-6m-5" value="Hệ thống giao tiếp giữa cobot với ngưới người dùng" style="rounded=0;whiteSpace=wrap;html=1;" parent="1" vertex="1">
          <mxGeometry x="354" y="273" width="120" height="60" as="geometry" />
        </mxCell>
        <mxCell id="Lsvn1gXwGa5AXuedf-6m-9" value="cobot A" style="shape=umlActor;verticalLabelPosition=bottom;verticalAlign=top;html=1;outlineConnect=0;strokeColor=default;align=center;fontFamily=Helvetica;fontSize=12;fontColor=default;fillColor=default;" parent="1" vertex="1">
          <mxGeometry x="200" y="463" width="30" height="60" as="geometry" />
        </mxCell>
        <mxCell id="Lsvn1gXwGa5AXuedf-6m-11" value="cobot C" style="shape=umlActor;verticalLabelPosition=bottom;verticalAlign=top;html=1;outlineConnect=0;strokeColor=default;align=center;fontFamily=Helvetica;fontSize=12;fontColor=default;fillColor=default;" parent="1" vertex="1">
          <mxGeometry x="600" y="463" width="30" height="60" as="geometry" />
        </mxCell>
        <mxCell id="Lsvn1gXwGa5AXuedf-6m-12" value="cobot B" style="shape=umlActor;verticalLabelPosition=bottom;verticalAlign=top;html=1;outlineConnect=0;strokeColor=default;align=center;fontFamily=Helvetica;fontSize=12;fontColor=default;fillColor=default;" parent="1" vertex="1">
          <mxGeometry x="399" y="463" width="30" height="60" as="geometry" />
        </mxCell>
        <mxCell id="Lsvn1gXwGa5AXuedf-6m-14" value="user 1" style="shape=umlActor;verticalLabelPosition=bottom;verticalAlign=top;html=1;outlineConnect=0;strokeColor=default;align=center;fontFamily=Helvetica;fontSize=12;fontColor=default;fillColor=default;" parent="1" vertex="1">
          <mxGeometry x="150" y="273" width="30" height="60" as="geometry" />
        </mxCell>
        <mxCell id="Lsvn1gXwGa5AXuedf-6m-24" style="edgeStyle=orthogonalEdgeStyle;rounded=0;orthogonalLoop=1;jettySize=auto;html=1;exitX=0.5;exitY=1;exitDx=0;exitDy=0;entryX=0.5;entryY=0;entryDx=0;entryDy=0;fontFamily=Helvetica;fontSize=12;fontColor=default;" parent="1" source="Lsvn1gXwGa5AXuedf-6m-15" target="Lsvn1gXwGa5AXuedf-6m-5" edge="1">
          <mxGeometry relative="1" as="geometry" />
        </mxCell>
        <mxCell id="Lsvn1gXwGa5AXuedf-6m-15" value="hệ thống thu thập thông tin từ thiết bị ngoại vi" style="rounded=0;whiteSpace=wrap;html=1;strokeColor=default;align=center;verticalAlign=top;fontFamily=Helvetica;fontSize=12;fontColor=default;fillColor=default;" parent="1" vertex="1">
          <mxGeometry x="354" y="180" width="120" height="60" as="geometry" />
        </mxCell>
        <mxCell id="Lsvn1gXwGa5AXuedf-6m-30" style="edgeStyle=orthogonalEdgeStyle;rounded=0;orthogonalLoop=1;jettySize=auto;html=1;exitX=0.5;exitY=0.5;exitDx=0;exitDy=0;entryX=0;entryY=0.5;entryDx=0;entryDy=0;fontFamily=Helvetica;fontSize=12;fontColor=default;exitPerimeter=0;" parent="1" source="Lsvn1gXwGa5AXuedf-6m-14" target="Lsvn1gXwGa5AXuedf-6m-5" edge="1">
          <mxGeometry relative="1" as="geometry">
            <mxPoint x="275" y="303" as="sourcePoint" />
          </mxGeometry>
        </mxCell>
        <mxCell id="Lsvn1gXwGa5AXuedf-6m-26" style="edgeStyle=orthogonalEdgeStyle;rounded=0;orthogonalLoop=1;jettySize=auto;html=1;exitX=0.5;exitY=1;exitDx=0;exitDy=0;fontFamily=Helvetica;fontSize=12;fontColor=default;" parent="1" source="Lsvn1gXwGa5AXuedf-6m-17" target="Lsvn1gXwGa5AXuedf-6m-12" edge="1">
          <mxGeometry relative="1" as="geometry" />
        </mxCell>
        <mxCell id="Lsvn1gXwGa5AXuedf-6m-17" value="hệ thống điều khiển" style="rounded=0;whiteSpace=wrap;html=1;strokeColor=default;align=center;verticalAlign=top;fontFamily=Helvetica;fontSize=12;fontColor=default;fillColor=default;" parent="1" vertex="1">
          <mxGeometry x="354" y="365" width="120" height="30" as="geometry" />
        </mxCell>
        <mxCell id="Lsvn1gXwGa5AXuedf-6m-27" style="edgeStyle=orthogonalEdgeStyle;rounded=0;orthogonalLoop=1;jettySize=auto;html=1;exitX=1;exitY=0.5;exitDx=0;exitDy=0;entryX=0.5;entryY=0;entryDx=0;entryDy=0;entryPerimeter=0;fontFamily=Helvetica;fontSize=12;fontColor=default;" parent="1" source="Lsvn1gXwGa5AXuedf-6m-17" target="Lsvn1gXwGa5AXuedf-6m-11" edge="1">
          <mxGeometry relative="1" as="geometry" />
        </mxCell>
        <mxCell id="Lsvn1gXwGa5AXuedf-6m-28" style="edgeStyle=orthogonalEdgeStyle;rounded=0;orthogonalLoop=1;jettySize=auto;html=1;exitX=0;exitY=0.5;exitDx=0;exitDy=0;entryX=0.5;entryY=0;entryDx=0;entryDy=0;entryPerimeter=0;fontFamily=Helvetica;fontSize=12;fontColor=default;" parent="1" source="Lsvn1gXwGa5AXuedf-6m-17" target="Lsvn1gXwGa5AXuedf-6m-9" edge="1">
          <mxGeometry relative="1" as="geometry" />
        </mxCell>
        <mxCell id="Lsvn1gXwGa5AXuedf-6m-36" style="edgeStyle=orthogonalEdgeStyle;rounded=0;orthogonalLoop=1;jettySize=auto;html=1;exitX=1;exitY=0.5;exitDx=0;exitDy=0;fontFamily=Helvetica;fontSize=12;fontColor=default;entryX=0.5;entryY=0.5;entryDx=0;entryDy=0;entryPerimeter=0;" parent="1" source="Lsvn1gXwGa5AXuedf-6m-5" target="Lsvn1gXwGa5AXuedf-6m-34" edge="1">
          <mxGeometry relative="1" as="geometry">
            <mxPoint x="560" y="250" as="targetPoint" />
          </mxGeometry>
        </mxCell>
        <mxCell id="Lsvn1gXwGa5AXuedf-6m-34" value="super visor" style="shape=umlActor;verticalLabelPosition=bottom;verticalAlign=top;html=1;outlineConnect=0;strokeColor=default;align=center;fontFamily=Helvetica;fontSize=12;fontColor=default;fillColor=default;" parent="1" vertex="1">
          <mxGeometry x="690" y="273" width="30" height="60" as="geometry" />
        </mxCell>
        <mxCell id="KjtaIP1-FldGR7OD5_f2-1" value="lập trình cho cobot để thực hiện công việc" style="text;html=1;align=center;verticalAlign=middle;whiteSpace=wrap;rounded=0;" parent="1" vertex="1">
          <mxGeometry x="200" y="260" width="120" height="40" as="geometry" />
        </mxCell>
        <mxCell id="KjtaIP1-FldGR7OD5_f2-2" value="quan sát quá trình làm việc qua mô phỏng đồ họa máy tính" style="text;html=1;align=center;verticalAlign=middle;whiteSpace=wrap;rounded=0;" parent="1" vertex="1">
          <mxGeometry x="530" y="252.5" width="130" height="47.5" as="geometry" />
        </mxCell>
      </root>
    </mxGraphModel>
  </diagram>
  <diagram id="d6_xuZEXdSFlEhVOOhIp" name="Trang-3">
    <mxGraphModel dx="1092" dy="909" grid="0" gridSize="10" guides="1" tooltips="1" connect="1" arrows="1" fold="1" page="1" pageScale="1" pageWidth="827" pageHeight="1169" math="0" shadow="0">
      <root>
        <mxCell id="0" />
        <mxCell id="1" parent="0" />
        <mxCell id="jM--pEcSTE9YYBWYTcFJ-15" value="" style="dashed=1;rounded=0;whiteSpace=wrap;html=1;strokeColor=default;align=center;verticalAlign=top;fontFamily=Helvetica;fontSize=12;fontColor=default;fillColor=default;" parent="1" vertex="1">
          <mxGeometry x="243" y="92.5" width="337" height="447.5" as="geometry" />
        </mxCell>
        <mxCell id="X5rS_qIl-BVZxbtwSIIR-1" value="Khối&amp;nbsp;&lt;div&gt;phát hiện vật thể&lt;/div&gt;" style="rounded=1;whiteSpace=wrap;html=1;strokeColor=default;align=center;verticalAlign=top;fontFamily=Helvetica;fontSize=12;fontColor=default;fillColor=default;" parent="1" vertex="1">
          <mxGeometry x="21" y="180" width="120" height="60" as="geometry" />
        </mxCell>
        <mxCell id="jM--pEcSTE9YYBWYTcFJ-11" style="edgeStyle=orthogonalEdgeStyle;rounded=0;orthogonalLoop=1;jettySize=auto;html=1;entryX=0;entryY=0.25;entryDx=0;entryDy=0;fontFamily=Helvetica;fontSize=12;fontColor=default;" parent="1" target="jM--pEcSTE9YYBWYTcFJ-1" edge="1">
          <mxGeometry relative="1" as="geometry">
            <mxPoint x="570" y="187.5" as="sourcePoint" />
          </mxGeometry>
        </mxCell>
        <mxCell id="X5rS_qIl-BVZxbtwSIIR-2" value="Khối&lt;div&gt;&amp;nbsp;giao diện người dùng&lt;/div&gt;&lt;div&gt;(chọn vật thể, chọn hành động,...)&lt;/div&gt;" style="rounded=1;whiteSpace=wrap;html=1;strokeColor=default;align=center;verticalAlign=top;fontFamily=Helvetica;fontSize=12;fontColor=default;fillColor=default;" parent="1" vertex="1">
          <mxGeometry x="430" y="430" width="140" height="70" as="geometry" />
        </mxCell>
        <mxCell id="jM--pEcSTE9YYBWYTcFJ-14" style="edgeStyle=orthogonalEdgeStyle;rounded=0;orthogonalLoop=1;jettySize=auto;html=1;exitX=0;exitY=0.75;exitDx=0;exitDy=0;fontFamily=Helvetica;fontSize=12;fontColor=default;" parent="1" source="jM--pEcSTE9YYBWYTcFJ-1" edge="1">
          <mxGeometry relative="1" as="geometry">
            <mxPoint x="570" y="217.5" as="targetPoint" />
          </mxGeometry>
        </mxCell>
        <mxCell id="jM--pEcSTE9YYBWYTcFJ-1" value="Khối&lt;div&gt;framework&lt;/div&gt;" style="rounded=1;whiteSpace=wrap;html=1;strokeColor=default;align=center;verticalAlign=top;fontFamily=Helvetica;fontSize=12;fontColor=default;fillColor=default;" parent="1" vertex="1">
          <mxGeometry x="700" y="172.5" width="120" height="60" as="geometry" />
        </mxCell>
        <mxCell id="jM--pEcSTE9YYBWYTcFJ-4" value="database" style="shape=cylinder3;whiteSpace=wrap;html=1;boundedLbl=1;backgroundOutline=1;size=15;strokeColor=default;align=center;verticalAlign=top;fontFamily=Helvetica;fontSize=12;fontColor=default;fillColor=default;" parent="1" vertex="1">
          <mxGeometry x="280" y="410" width="70" height="90" as="geometry" />
        </mxCell>
        <mxCell id="jM--pEcSTE9YYBWYTcFJ-6" value="" style="endArrow=classic;html=1;rounded=0;fontFamily=Helvetica;fontSize=12;fontColor=default;exitX=1;exitY=0.5;exitDx=0;exitDy=0;entryX=0;entryY=0.5;entryDx=0;entryDy=0;" parent="1" source="X5rS_qIl-BVZxbtwSIIR-1" target="iYylK1XlQKqTyYbcOugN-1" edge="1">
          <mxGeometry width="50" height="50" relative="1" as="geometry">
            <mxPoint x="390" y="260" as="sourcePoint" />
            <mxPoint x="240" y="215" as="targetPoint" />
          </mxGeometry>
        </mxCell>
        <mxCell id="jM--pEcSTE9YYBWYTcFJ-18" value="kiểm tra&amp;nbsp;&lt;div&gt;thông tin vật thể&amp;nbsp;&lt;/div&gt;" style="text;html=1;align=center;verticalAlign=middle;whiteSpace=wrap;rounded=0;fontFamily=Helvetica;fontSize=12;fontColor=default;" parent="1" vertex="1">
          <mxGeometry x="340" y="310" width="46" height="80" as="geometry" />
        </mxCell>
        <mxCell id="jM--pEcSTE9YYBWYTcFJ-19" value="&lt;span style=&quot;text-wrap: nowrap;&quot;&gt;thông tin&lt;/span&gt;&lt;div style=&quot;text-wrap: nowrap;&quot;&gt;&amp;nbsp;của vật thể&lt;/div&gt;" style="text;html=1;align=center;verticalAlign=middle;whiteSpace=wrap;rounded=0;fontFamily=Helvetica;fontSize=12;fontColor=default;" parent="1" vertex="1">
          <mxGeometry x="172" y="180" width="60" height="30" as="geometry" />
        </mxCell>
        <mxCell id="jM--pEcSTE9YYBWYTcFJ-21" value="cập nhật&amp;nbsp;&lt;div&gt;thông tin&amp;nbsp; vật thể&lt;/div&gt;" style="text;html=1;align=center;verticalAlign=middle;whiteSpace=wrap;rounded=0;fontFamily=Helvetica;fontSize=12;fontColor=default;" parent="1" vertex="1">
          <mxGeometry x="250" y="310" width="36" height="80" as="geometry" />
        </mxCell>
        <mxCell id="jM--pEcSTE9YYBWYTcFJ-23" value="gọi api lập trình công việc cho cobot" style="text;html=1;align=center;verticalAlign=middle;whiteSpace=wrap;rounded=0;fontFamily=Helvetica;fontSize=12;fontColor=default;" parent="1" vertex="1">
          <mxGeometry x="583" y="147.5" width="90" height="40" as="geometry" />
        </mxCell>
        <mxCell id="jM--pEcSTE9YYBWYTcFJ-24" value="thực hiện vả trả về trạng thái qua api" style="text;html=1;align=center;verticalAlign=middle;whiteSpace=wrap;rounded=0;fontFamily=Helvetica;fontSize=12;fontColor=default;" parent="1" vertex="1">
          <mxGeometry x="578" y="222.5" width="100" height="50" as="geometry" />
        </mxCell>
        <mxCell id="iYylK1XlQKqTyYbcOugN-1" value="&lt;font style=&quot;font-size: 24px;&quot;&gt;Web server&lt;/font&gt;" style="rounded=1;whiteSpace=wrap;html=1;" parent="1" vertex="1">
          <mxGeometry x="276" y="130" width="294" height="160" as="geometry" />
        </mxCell>
        <mxCell id="iYylK1XlQKqTyYbcOugN-3" style="edgeStyle=orthogonalEdgeStyle;rounded=0;orthogonalLoop=1;jettySize=auto;html=1;exitX=0.75;exitY=0;exitDx=0;exitDy=0;entryX=0.881;entryY=1.007;entryDx=0;entryDy=0;entryPerimeter=0;" parent="1" source="X5rS_qIl-BVZxbtwSIIR-2" target="iYylK1XlQKqTyYbcOugN-1" edge="1">
          <mxGeometry relative="1" as="geometry" />
        </mxCell>
        <mxCell id="iYylK1XlQKqTyYbcOugN-4" style="edgeStyle=orthogonalEdgeStyle;rounded=0;orthogonalLoop=1;jettySize=auto;html=1;exitX=0.75;exitY=1;exitDx=0;exitDy=0;entryX=0.469;entryY=0.007;entryDx=0;entryDy=0;entryPerimeter=0;" parent="1" edge="1">
          <mxGeometry relative="1" as="geometry">
            <mxPoint x="460.84000000000003" y="290" as="sourcePoint" />
            <mxPoint x="460.0000000000001" y="430.4899999999999" as="targetPoint" />
          </mxGeometry>
        </mxCell>
        <mxCell id="iYylK1XlQKqTyYbcOugN-5" style="edgeStyle=orthogonalEdgeStyle;rounded=0;orthogonalLoop=1;jettySize=auto;html=1;exitX=0.145;exitY=0;exitDx=0;exitDy=4.35;exitPerimeter=0;entryX=0.048;entryY=0.999;entryDx=0;entryDy=0;entryPerimeter=0;" parent="1" source="jM--pEcSTE9YYBWYTcFJ-4" target="iYylK1XlQKqTyYbcOugN-1" edge="1">
          <mxGeometry relative="1" as="geometry" />
        </mxCell>
        <mxCell id="iYylK1XlQKqTyYbcOugN-7" value="lập trình công việc cho cobot" style="text;html=1;align=center;verticalAlign=middle;whiteSpace=wrap;rounded=0;" parent="1" vertex="1">
          <mxGeometry x="533" y="320.63" width="37" height="99.37" as="geometry" />
        </mxCell>
        <mxCell id="iYylK1XlQKqTyYbcOugN-9" value="" style="endArrow=classic;startArrow=classic;html=1;rounded=0;exitX=0.855;exitY=0;exitDx=0;exitDy=4.35;exitPerimeter=0;entryX=0.219;entryY=0.99;entryDx=0;entryDy=0;entryPerimeter=0;" parent="1" source="jM--pEcSTE9YYBWYTcFJ-4" target="iYylK1XlQKqTyYbcOugN-1" edge="1">
          <mxGeometry width="50" height="50" relative="1" as="geometry">
            <mxPoint x="390" y="310" as="sourcePoint" />
            <mxPoint x="440" y="260" as="targetPoint" />
          </mxGeometry>
        </mxCell>
        <mxCell id="iYylK1XlQKqTyYbcOugN-10" value="mô phỏng công việc" style="text;html=1;align=center;verticalAlign=middle;whiteSpace=wrap;rounded=0;" parent="1" vertex="1">
          <mxGeometry x="420" y="310" width="40" height="90" as="geometry" />
        </mxCell>
      </root>
    </mxGraphModel>
  </diagram>
</mxfile>
